USFL
nRows=140
nColumns=2
inDegrees=yes
endheader
time	med_gas_r	
2.25	 47.691794	
2.3125	 47.637139	
2.375	 47.623164	
2.4375	 47.690439	
2.5	 47.734991	
2.5625	 47.787659	
2.625	 47.745535	
2.6875	 47.689321	
2.75	 47.743956	
2.8125	 47.770474	
2.875	 47.831999	
2.9375	 47.797497	
3	 47.823633	
3.0625	 47.857677	
3.125	 47.823129	
3.1875	 47.774625	
3.25	 47.776939	
3.3125	 47.808702	
3.375	 47.746776	
3.4375	 47.634640	
3.5	 47.696201	
3.5625	 47.781655	
3.625	 47.743626	
3.6875	 47.778594	
3.75	 47.749483	
3.8125	 47.684386	
3.875	 47.701013	
3.9375	 47.684713	
4	 47.575507	
4.0625	 47.561389	
4.125	 47.586227	
4.1875	 47.474451	
4.25	 47.592250	
4.3125	 47.592619	
4.375	 47.687308	
4.4375	 47.555377	
4.5	 47.526548	
4.5625	 47.649721	
4.625	 47.550465	
4.6875	 47.490927	
4.75	 47.331121	
4.8125	 47.482652	
4.875	 47.642808	
4.9375	 47.692480	
5	 47.610277	
5.0625	 47.439815	
5.125	 47.313238	
5.1875	 47.638048	
5.25	 47.928128	
5.3125	 45.645741	
5.375	 45.395234	
5.4375	 45.283894	
5.5	 45.086166	
5.5625	 44.979942	
5.625	 44.866558	
5.6875	 44.802775	
5.75	 44.785218	
5.8125	 44.657277	
5.875	 44.533033	
5.9375	 44.328704	
6	 43.862458	
6.0625	 43.798496	
6.125	 43.672134	
6.1875	 43.513872	
6.25	 43.482166	
6.3125	 43.449624	
6.375	 43.369218	
6.4375	 43.304931	
6.5	 43.121640	
6.5625	 42.935672	
6.625	 42.881952	
6.6875	 42.794796	
6.75	 42.685223	
6.8125	 42.653419	
6.875	 42.620272	
6.9375	 42.705020	
7	 42.660570	
7.0625	 42.638105	
7.125	 42.451070	
7.1875	 42.292330	
7.25	 42.155148	
7.3125	 41.871925	
7.375	 41.722822	
7.4375	 41.562279	
7.5	 41.345779	
7.5625	 41.272913	
7.625	 41.193303	
7.6875	 40.997706	
7.75	 40.874702	
7.8125	 40.734981	
7.875	 40.625649	
7.9375	 40.456691	
8	 40.433391	
8.0625	 40.403336	
8.125	 40.536951	
8.1875	 40.520830	
8.25	 40.606168	
8.3125	 40.705835	
8.375	 40.745542	
8.4375	 40.917867	
8.5	 41.062958	
8.5625	 41.116350	
8.625	 41.299141	
8.6875	 41.395743	
8.75	 41.365826	
8.8125	 41.293489	
8.875	 41.260915	
8.9375	 41.155800	
9	 40.907574	
9.0625	 40.833404	
9.125	 40.722360	
9.1875	 40.589316	
9.25	 40.449809	
9.3125	 40.372633	
9.375	 40.310264	
9.4375	 40.415004	
9.5	 40.362671	
9.5625	 40.292141	
9.625	 40.107294	
9.6875	 40.056937	
9.75	 40.110923	
9.8125	 40.166366	
9.875	 40.156038	
9.9375	 40.206407	
10	 40.139038	
10.0625	 40.216149	
10.125	 40.433071	
10.1875	 42.572593	
10.25	 43.374623	
10.3125	 46.180426	
10.375	 46.598956	
10.4375	 50.045180	
10.5	 49.931882	
10.5625	 49.956690	
10.625	 49.769116	
10.6875	 49.670222	
10.75	 49.838056	
10.8125	 49.827303	
10.875	 49.826341	
10.9375	 49.841642	
